<?xml version="1.0" encoding="utf-8"?>
<!-- Generator: Adobe Illustrator 19.2.1, SVG Export Plug-In . SVG Version: 6.00 Build 0)  -->
<svg version="1.1" id="Layer_1" xmlns="http://www.w3.org/2000/svg" xmlns:xlink="http://www.w3.org/1999/xlink" x="0px" y="0px"
	 viewBox="0 0 1200 1200" style="enable-background:new 0 0 1200 1200;" xml:space="preserve">
<style type="text/css">
	.st0{fill:none;}
</style>
<path d="M1102.9,362c-69.7-44.5-365.2-221.5-424.3-257c-93-55.9-101.4-50-138.5-27.8S228.7,281.1,99,362.8
	c-28.1,17.7-48.1,47.3-49,106.6c-0.8,59.3,0.9,204,0.9,244.7c0,40.8-11.1,92.7,48.2,129.8c59.3,37.1,378.3,230.8,430.2,271.5
	c51.9,40.8,82.9,21.7,134.8-7.9c51.9-29.7,378.5-235.5,435.1-267.3c44-24.7,50.8-98.3,50.8-98.3s0-220.6,0-261.4
	C1150,439.7,1156.1,395.9,1102.9,362z M648,194.7l371.7,226.5L827.6,538.3c0,0-146.6-87.8-179.6-108.2V194.7z M529.3,197.7
	c0,0,11.1,217.1,0,235.7C518.1,452,358,540.4,358,540.4L165.7,424.9L529.3,197.7z M142,512.5l130.1,83L142,676.7V512.5z M532,1003.4
	L159.6,776.5l201.7-125.6L532,761.3V1003.4z M573.2,669.8C550,655.8,448.7,595,448.7,595l138.8-86.7c14,0,146.2,87.8,146.2,87.8
	s-107.5,63.9-126,78.8C589.1,689.7,594.9,682.8,573.2,669.8z M648,993.1V785.8l196.8-123.6l169.6,101.6L648,993.1z M1046.6,675.2
	l-103.8-72.5l103.8-67.2L1046.6,675.2z"/>
<line class="st0" x1="-66" y1="-7596" x2="-66" y2="8787"/>
</svg>
