<?xml version="1.0" encoding="utf-8"?>
<!-- Generator: Adobe Illustrator 19.2.1, SVG Export Plug-In . SVG Version: 6.00 Build 0)  -->
<svg version="1.1" id="Layer_0_xA0_Image_1_" xmlns="http://www.w3.org/2000/svg" xmlns:xlink="http://www.w3.org/1999/xlink"
	 x="0px" y="0px" viewBox="0 0 288 288" style="enable-background:new 0 0 288 288;" xml:space="preserve">
<style type="text/css">
	.st0{fill:#2A5CAA;}
</style>
<path d="M287.5,13.4c-1.2-6.9-6.1-11.8-12.9-12.9c-0.6-0.1-1.1-0.3-1.7-0.5C187,0,101,0,15.1,0c-0.6,0.2-1.1,0.4-1.7,0.5
	C6.5,1.6,1.7,6.5,0.5,13.4C0.4,14,0.2,14.6,0,15.1C0,101,0,187,0,272.9c0.2,0.6,0.4,1.1,0.5,1.7c1.2,6.9,6,11.7,13,12.9
	c0.5,0.1,1,0.3,1.4,0.5c46.2,0,92.5,0,138.7,0c0-0.6,0.1-1.2,0.1-1.8c0-36.1,0-72.2,0-108.4c0-0.4,0-0.9,0-1.4c-0.6,0-1.1,0-1.5,0
	c-11.5,0-23,0-34.6,0c-1.6,0-1.6,0-1.6-1.5c0-13.5,0-27,0-40.6c0-1.2,0.4-1.5,1.6-1.5c11.5,0,23,0,34.6,0c0.5,0,1,0,1.6,0
	c0-0.5,0-0.9,0-1.3c0-11.2-0.1-22.5,0.1-33.7c0.1-9,1.9-17.8,5.8-26c5.4-11.1,13.8-19.1,25.2-23.8c7.6-3.2,15.6-4.7,23.9-4.5
	c9.4,0.1,18.9,0.6,28.3,0.9c1.8,0.1,3.5,0.4,5.3,0.5c1,0,1.3,0.4,1.3,1.4c0,5.6,0,11.2,0,16.8c0,6.6,0,13.2,0,19.8
	c0,1.2-0.3,1.5-1.5,1.5c-7.2,0-14.3-0.1-21.5,0c-3.3,0.1-6.6,0.4-9.7,1.1c-6.1,1.3-9.8,5.4-11,11.5c-0.5,2.5-0.8,5-0.8,7.5
	c-0.1,9.2,0,18.3,0,27.5c0,0.3,0,0.5,0.1,1c0.5,0,1.1,0,1.6,0c13.2,0,26.4,0,39.6,0c1.7,0,1.8,0,1.5,1.6c-0.9,7.2-1.9,14.4-2.8,21.6
	c-0.8,6-1.5,12-2.2,18.1c-0.3,2.3-0.2,2.3-2.5,2.3c-11.2,0-22.4,0-33.6,0c-0.5,0-0.9,0-1.6,0c0,0.6,0,1.2,0,1.7
	c0,35.7,0,71.4,0,107.2c0,0.9,0,1.8,0,2.6c24.7,0,49.4,0,74.2,0c0.5-0.2,1-0.4,1.5-0.5c6.9-1.2,11.7-6,13-13c0.1-0.5,0.3-1,0.5-1.5
	c0-86,0-172,0-258C287.8,14.5,287.6,14,287.5,13.4z"/>
</svg>
