<?xml version="1.0" encoding="utf-8"?>
<!-- Generator: Adobe Illustrator 19.2.1, SVG Export Plug-In . SVG Version: 6.00 Build 0)  -->
<svg version="1.1" id="Layer_1" xmlns="http://www.w3.org/2000/svg" xmlns:xlink="http://www.w3.org/1999/xlink" x="0px" y="0px"
	 viewBox="0 0 1200 1200" style="enable-background:new 0 0 1200 1200;" xml:space="preserve">
<style type="text/css">
	.st0{fill-rule:evenodd;clip-rule:evenodd;}
</style>
<path class="st0" d="M600,125C331,125,113,343,113,612.1c0,215.2,139.5,397.7,333.1,462.1c24.4,4.5,33.2-10.6,33.2-23.5
	c0-11.6-0.4-42.2-0.7-82.8c-135.5,29.4-164.1-65.3-164.1-65.3c-22.1-56.3-54.1-71.2-54.1-71.2c-44.2-30.2,3.3-29.6,3.3-29.6
	c48.9,3.4,74.6,50.2,74.6,50.2c43.4,74.4,114,52.9,141.7,40.5c4.4-31.5,17-52.9,30.9-65.1C403,815,289.3,773.2,289.3,586.6
	c0-53.2,19-96.6,50.1-130.7c-5-12.3-21.7-61.8,4.8-128.9c0,0,40.9-13.1,133.9,49.9c38.8-10.8,80.5-16.2,121.9-16.4
	c41.4,0.2,83,5.6,121.9,16.4c93-63,133.8-49.9,133.8-49.9c26.6,67.1,9.9,116.6,4.8,128.9c31.2,34,50.1,77.5,50.1,130.7
	c0,187.1-113.9,228.3-222.4,240.3c17.5,15,33.1,44.8,33.1,90.2c0,65.1-0.6,117.6-0.6,133.6c0,13,8.8,28.2,33.5,23.4
	c193.4-64.5,332.8-247,332.8-462.1C1087,343,869,125,600,125z"/>
</svg>
